<mxfile host="app.diagrams.net" agent="Mozilla/5.0 (Windows NT 10.0; Win64; x64) AppleWebKit/537.36 (KHTML, like Gecko) Chrome/135.0.0.0 Safari/537.36 Edg/135.0.0.0" version="26.2.14">
  <diagram name="Page-1" id="eKUFLMoqEkoK5U9OMnjI">
    <mxGraphModel dx="1673" dy="1084" grid="0" gridSize="10" guides="1" tooltips="1" connect="1" arrows="1" fold="1" page="0" pageScale="1" pageWidth="827" pageHeight="1169" math="0" shadow="0">
      <root>
        <mxCell id="0" />
        <mxCell id="1" parent="0" />
        <mxCell id="6dgVKFyyJOkfRrwIenRI-2" value="WarehouseApp" style="swimlane;fontStyle=1;align=center;verticalAlign=top;childLayout=stackLayout;horizontal=1;startSize=26;horizontalStack=0;resizeParent=1;resizeParentMax=0;resizeLast=0;collapsible=1;marginBottom=0;whiteSpace=wrap;html=1;" vertex="1" parent="1">
          <mxGeometry x="-215" y="-124" width="160" height="425" as="geometry" />
        </mxCell>
        <mxCell id="6dgVKFyyJOkfRrwIenRI-3" value="- inventory_manager&lt;div&gt;- site_var&lt;/div&gt;&lt;div&gt;- section_var&lt;/div&gt;&lt;div&gt;- stock_amount_var&lt;/div&gt;&lt;div&gt;- stock_item_var&lt;/div&gt;&lt;div&gt;- move_to_site_var&lt;/div&gt;&lt;div&gt;- move_to_var&lt;/div&gt;&lt;div&gt;- remove_item_var&lt;/div&gt;&lt;div&gt;- inventory_tree&lt;/div&gt;" style="text;strokeColor=none;fillColor=none;align=left;verticalAlign=top;spacingLeft=4;spacingRight=4;overflow=hidden;rotatable=0;points=[[0,0.5],[1,0.5]];portConstraint=eastwest;whiteSpace=wrap;html=1;" vertex="1" parent="6dgVKFyyJOkfRrwIenRI-2">
          <mxGeometry y="26" width="160" height="144" as="geometry" />
        </mxCell>
        <mxCell id="6dgVKFyyJOkfRrwIenRI-4" value="" style="line;strokeWidth=1;fillColor=none;align=left;verticalAlign=middle;spacingTop=-1;spacingLeft=3;spacingRight=3;rotatable=0;labelPosition=right;points=[];portConstraint=eastwest;strokeColor=inherit;" vertex="1" parent="6dgVKFyyJOkfRrwIenRI-2">
          <mxGeometry y="170" width="160" height="8" as="geometry" />
        </mxCell>
        <mxCell id="6dgVKFyyJOkfRrwIenRI-5" value="+ __init__()&lt;div&gt;+ create_widgets()&lt;/div&gt;&lt;div&gt;+ current_sites()&lt;/div&gt;&lt;div&gt;+ new_site_box()&lt;/div&gt;&lt;div&gt;&lt;div&gt;+ remove_site_box()&lt;/div&gt;&lt;div&gt;+ current_sections()&amp;nbsp;&lt;/div&gt;&lt;div&gt;+ new_section_box()&lt;/div&gt;&lt;div&gt;+ remove_section_box()&lt;/div&gt;&lt;div&gt;+ add_item()&lt;/div&gt;&lt;div&gt;+ add_stock()&lt;/div&gt;&lt;div&gt;+ remove_stock()&lt;/div&gt;&lt;div&gt;+ move_stock()&lt;/div&gt;&lt;div&gt;+ remove_item()&lt;/div&gt;&lt;div&gt;+ update_item_dropdown()&lt;/div&gt;&lt;div&gt;+ update_inventory()&lt;/div&gt;&lt;div&gt;+ sort_column()&lt;/div&gt;&lt;/div&gt;" style="text;strokeColor=none;fillColor=none;align=left;verticalAlign=top;spacingLeft=4;spacingRight=4;overflow=hidden;rotatable=0;points=[[0,0.5],[1,0.5]];portConstraint=eastwest;whiteSpace=wrap;html=1;" vertex="1" parent="6dgVKFyyJOkfRrwIenRI-2">
          <mxGeometry y="178" width="160" height="247" as="geometry" />
        </mxCell>
        <mxCell id="6dgVKFyyJOkfRrwIenRI-6" value="InventoryManager" style="swimlane;fontStyle=0;childLayout=stackLayout;horizontal=1;startSize=26;fillColor=none;horizontalStack=0;resizeParent=1;resizeParentMax=0;resizeLast=0;collapsible=1;marginBottom=0;whiteSpace=wrap;html=1;" vertex="1" parent="1">
          <mxGeometry x="-43" y="-124" width="195" height="253" as="geometry" />
        </mxCell>
        <mxCell id="6dgVKFyyJOkfRrwIenRI-7" value="&lt;div&gt;+ get_all_sites()&lt;/div&gt;&lt;div&gt;+ add_site()&lt;/div&gt;&lt;div&gt;+ remove_site()&lt;/div&gt;&lt;div&gt;+ get_all_sections()&lt;/div&gt;&lt;div&gt;+ add_section()&lt;/div&gt;&lt;div&gt;+ remove_section()&lt;/div&gt;&lt;div&gt;+ add_item()&lt;/div&gt;&lt;div&gt;+ remove_item()&lt;/div&gt;&lt;div&gt;+ add_stock()&lt;/div&gt;&lt;div&gt;+ remove_stock()&lt;/div&gt;&lt;div&gt;+ move_stock()&lt;/div&gt;&lt;div&gt;+ get_inventory()&lt;/div&gt;&lt;div&gt;+ get_items_in_section()&lt;/div&gt;&lt;div&gt;+ get_item_quantity()&lt;/div&gt;" style="text;strokeColor=none;fillColor=none;align=left;verticalAlign=top;spacingLeft=4;spacingRight=4;overflow=hidden;rotatable=0;points=[[0,0.5],[1,0.5]];portConstraint=eastwest;whiteSpace=wrap;html=1;" vertex="1" parent="6dgVKFyyJOkfRrwIenRI-6">
          <mxGeometry y="26" width="195" height="227" as="geometry" />
        </mxCell>
        <mxCell id="6dgVKFyyJOkfRrwIenRI-10" value="InventorySite" style="swimlane;fontStyle=1;align=center;verticalAlign=top;childLayout=stackLayout;horizontal=1;startSize=26;horizontalStack=0;resizeParent=1;resizeParentMax=0;resizeLast=0;collapsible=1;marginBottom=0;whiteSpace=wrap;html=1;" vertex="1" parent="1">
          <mxGeometry x="166" y="-124" width="160" height="52" as="geometry" />
        </mxCell>
        <mxCell id="6dgVKFyyJOkfRrwIenRI-11" value="+ name: string" style="text;strokeColor=none;fillColor=none;align=left;verticalAlign=top;spacingLeft=4;spacingRight=4;overflow=hidden;rotatable=0;points=[[0,0.5],[1,0.5]];portConstraint=eastwest;whiteSpace=wrap;html=1;" vertex="1" parent="6dgVKFyyJOkfRrwIenRI-10">
          <mxGeometry y="26" width="160" height="26" as="geometry" />
        </mxCell>
        <mxCell id="6dgVKFyyJOkfRrwIenRI-14" value="InventorySection" style="swimlane;fontStyle=1;align=center;verticalAlign=top;childLayout=stackLayout;horizontal=1;startSize=26;horizontalStack=0;resizeParent=1;resizeParentMax=0;resizeLast=0;collapsible=1;marginBottom=0;whiteSpace=wrap;html=1;" vertex="1" parent="1">
          <mxGeometry x="166" y="-59" width="160" height="86" as="geometry" />
        </mxCell>
        <mxCell id="6dgVKFyyJOkfRrwIenRI-15" value="+ name: string" style="text;strokeColor=none;fillColor=none;align=left;verticalAlign=top;spacingLeft=4;spacingRight=4;overflow=hidden;rotatable=0;points=[[0,0.5],[1,0.5]];portConstraint=eastwest;whiteSpace=wrap;html=1;" vertex="1" parent="6dgVKFyyJOkfRrwIenRI-14">
          <mxGeometry y="26" width="160" height="26" as="geometry" />
        </mxCell>
        <mxCell id="6dgVKFyyJOkfRrwIenRI-16" value="" style="line;strokeWidth=1;fillColor=none;align=left;verticalAlign=middle;spacingTop=-1;spacingLeft=3;spacingRight=3;rotatable=0;labelPosition=right;points=[];portConstraint=eastwest;strokeColor=inherit;" vertex="1" parent="6dgVKFyyJOkfRrwIenRI-14">
          <mxGeometry y="52" width="160" height="8" as="geometry" />
        </mxCell>
        <mxCell id="6dgVKFyyJOkfRrwIenRI-17" value="+ site_name: string" style="text;strokeColor=none;fillColor=none;align=left;verticalAlign=top;spacingLeft=4;spacingRight=4;overflow=hidden;rotatable=0;points=[[0,0.5],[1,0.5]];portConstraint=eastwest;whiteSpace=wrap;html=1;" vertex="1" parent="6dgVKFyyJOkfRrwIenRI-14">
          <mxGeometry y="60" width="160" height="26" as="geometry" />
        </mxCell>
        <mxCell id="6dgVKFyyJOkfRrwIenRI-18" value="RegularItem" style="swimlane;fontStyle=1;align=center;verticalAlign=top;childLayout=stackLayout;horizontal=1;startSize=26;horizontalStack=0;resizeParent=1;resizeParentMax=0;resizeLast=0;collapsible=1;marginBottom=0;whiteSpace=wrap;html=1;" vertex="1" parent="1">
          <mxGeometry x="341" y="-124" width="160" height="86" as="geometry" />
        </mxCell>
        <mxCell id="6dgVKFyyJOkfRrwIenRI-19" value="+ name: string" style="text;strokeColor=none;fillColor=none;align=left;verticalAlign=top;spacingLeft=4;spacingRight=4;overflow=hidden;rotatable=0;points=[[0,0.5],[1,0.5]];portConstraint=eastwest;whiteSpace=wrap;html=1;" vertex="1" parent="6dgVKFyyJOkfRrwIenRI-18">
          <mxGeometry y="26" width="160" height="26" as="geometry" />
        </mxCell>
        <mxCell id="6dgVKFyyJOkfRrwIenRI-20" value="" style="line;strokeWidth=1;fillColor=none;align=left;verticalAlign=middle;spacingTop=-1;spacingLeft=3;spacingRight=3;rotatable=0;labelPosition=right;points=[];portConstraint=eastwest;strokeColor=inherit;" vertex="1" parent="6dgVKFyyJOkfRrwIenRI-18">
          <mxGeometry y="52" width="160" height="8" as="geometry" />
        </mxCell>
        <mxCell id="6dgVKFyyJOkfRrwIenRI-21" value="+ quantity:&amp;nbsp; integer" style="text;strokeColor=none;fillColor=none;align=left;verticalAlign=top;spacingLeft=4;spacingRight=4;overflow=hidden;rotatable=0;points=[[0,0.5],[1,0.5]];portConstraint=eastwest;whiteSpace=wrap;html=1;" vertex="1" parent="6dgVKFyyJOkfRrwIenRI-18">
          <mxGeometry y="60" width="160" height="26" as="geometry" />
        </mxCell>
        <mxCell id="6dgVKFyyJOkfRrwIenRI-22" value="PerishableItem" style="swimlane;fontStyle=1;align=center;verticalAlign=top;childLayout=stackLayout;horizontal=1;startSize=26;horizontalStack=0;resizeParent=1;resizeParentMax=0;resizeLast=0;collapsible=1;marginBottom=0;whiteSpace=wrap;html=1;" vertex="1" parent="1">
          <mxGeometry x="341" y="-28" width="160" height="86" as="geometry" />
        </mxCell>
        <mxCell id="6dgVKFyyJOkfRrwIenRI-23" value="+ name: string" style="text;strokeColor=none;fillColor=none;align=left;verticalAlign=top;spacingLeft=4;spacingRight=4;overflow=hidden;rotatable=0;points=[[0,0.5],[1,0.5]];portConstraint=eastwest;whiteSpace=wrap;html=1;" vertex="1" parent="6dgVKFyyJOkfRrwIenRI-22">
          <mxGeometry y="26" width="160" height="26" as="geometry" />
        </mxCell>
        <mxCell id="6dgVKFyyJOkfRrwIenRI-24" value="" style="line;strokeWidth=1;fillColor=none;align=left;verticalAlign=middle;spacingTop=-1;spacingLeft=3;spacingRight=3;rotatable=0;labelPosition=right;points=[];portConstraint=eastwest;strokeColor=inherit;" vertex="1" parent="6dgVKFyyJOkfRrwIenRI-22">
          <mxGeometry y="52" width="160" height="8" as="geometry" />
        </mxCell>
        <mxCell id="6dgVKFyyJOkfRrwIenRI-25" value="+ quantity:&amp;nbsp; integer" style="text;strokeColor=none;fillColor=none;align=left;verticalAlign=top;spacingLeft=4;spacingRight=4;overflow=hidden;rotatable=0;points=[[0,0.5],[1,0.5]];portConstraint=eastwest;whiteSpace=wrap;html=1;" vertex="1" parent="6dgVKFyyJOkfRrwIenRI-22">
          <mxGeometry y="60" width="160" height="26" as="geometry" />
        </mxCell>
      </root>
    </mxGraphModel>
  </diagram>
</mxfile>
